<svg width="1440" height="306" viewBox="0 0 1440 306" fill="none" xmlns="http://www.w3.org/2000/svg">
<path d="M0 170V136H82.5378V170H165.076V136H247.613V68H330.151V34H412.58V136H495.118V272H577.656V136H660.193V68H742.731V136H825.269H907.807V272H990.344V170H1072.88V136H1155.42V238H1237.85V136H1320.39V272H1402.92V136H1485.46V0H1568V306H1485.46H1402.92H1320.39H1237.85H1155.42H1072.88H990.344H907.807H825.269H742.731H660.193H577.656H495.118H412.58H330.151H247.613H165.076H82.5378H0V170Z" fill="#252E3B"/>
</svg>
