<svg width="53" height="60" viewBox="0 0 53 60" fill="none" xmlns="http://www.w3.org/2000/svg">
<path d="M26.4202 60L4.81477 54.0021L0 0H52.905L48.0853 53.9938L26.4202 60Z" fill="#264DE4"/>
<path d="M43.9589 50.5558L48.0775 4.41553H26.4524V55.4092L43.9589 50.5558Z" fill="#2965F1"/>
<path d="M11.0378 24.4441L11.6313 31.0672H26.4527V24.4441H11.0378Z" fill="#EBEBEB"/>
<path d="M9.84488 11.0387L10.4469 17.6618H26.4526V11.0387H9.84488Z" fill="#EBEBEB"/>
<path d="M26.4521 41.6453L26.4231 41.6529L19.0469 39.6612L18.5753 34.379H11.9267L12.8545 44.7784L26.4216 48.5444L26.4521 48.5361V41.6453Z" fill="#EBEBEB"/>
<path d="M41.8249 24.444L43.0204 11.0387H26.4295V17.6618H35.7621L35.1594 24.444H26.4295V31.0672H34.5852L33.8162 39.6569L26.4293 41.6507V48.5411L40.0072 44.7782L40.1067 43.6592L41.6633 26.2225L41.8249 24.444Z" fill="white"/>
</svg>
