<svg width="59" height="60" viewBox="0 0 59 60" fill="none" xmlns="http://www.w3.org/2000/svg">
<path d="M57.8888 35.8458C57.5399 34.7892 56.6261 34.0533 55.4443 33.8767C54.887 33.7935 54.2488 33.829 53.4936 33.9847C52.1772 34.2563 51.2006 34.3597 50.4879 34.3797C53.1781 29.8376 55.3656 24.6581 56.625 19.7824C58.6613 11.8985 57.5731 8.30694 56.3015 6.68239C52.9363 2.38239 48.0265 0.0723931 42.1034 0.00171129C38.9436 -0.0369251 36.1697 0.586939 34.7227 1.03557C33.3754 0.797848 31.9268 0.66512 30.4068 0.640575C27.5574 0.59512 25.0399 1.21626 22.8888 2.49285C21.6979 2.09012 19.7865 1.52239 17.5793 1.16012C12.3879 0.307848 8.20381 0.971939 5.14335 3.13398C1.43744 5.75171 -0.280512 10.2999 0.0372156 16.6522C0.138125 18.669 1.26631 24.8053 3.04267 30.6249C4.06358 33.9699 5.15222 36.7476 6.27835 38.8817C7.8754 41.9078 9.58426 43.6899 11.5027 44.3299C12.5779 44.6881 14.5315 44.939 16.5863 43.2276C16.8468 43.5431 17.1943 43.8565 17.6554 44.1476C18.2411 44.5169 18.9572 44.8188 19.6724 44.9976C22.2499 45.6419 24.6643 45.4808 26.724 44.5776C26.7368 44.944 26.7465 45.294 26.7547 45.5963C26.7684 46.0865 26.782 46.5672 26.7999 47.0167C26.922 50.0563 27.1288 52.4197 27.7415 54.0733C27.7752 54.1642 27.8204 54.3028 27.8681 54.4499C28.1738 55.3858 28.6849 56.9526 29.9854 58.1797C31.332 59.4508 32.9609 59.8406 34.4527 59.8406C35.2009 59.8406 35.9147 59.7424 36.5409 59.6083C38.7727 59.1299 41.3074 58.4013 43.1411 55.7903C44.8747 53.3222 45.7174 49.6047 45.8699 43.7472C45.8897 43.5815 45.9079 43.4233 45.9254 43.2726L45.9618 42.9631L46.3702 42.999L46.4754 43.006C48.7486 43.1097 51.5281 42.6276 53.2352 41.8347C54.584 41.2088 58.9065 38.9267 57.8888 35.8458Z" fill="black"/>
<path d="M54.002 36.4448C47.2429 37.8391 46.7781 35.5507 46.7781 35.5507C53.9145 24.9614 56.8979 11.5198 54.3236 8.23002C47.2999 -0.743845 35.142 3.50025 34.939 3.61025L34.8738 3.62206C33.5384 3.34479 32.044 3.17979 30.3643 3.15229C27.3061 3.10229 24.9861 3.95411 23.2256 5.28911C23.2256 5.28911 1.53699 -3.64589 2.54585 16.5264C2.7604 20.8177 8.69676 48.9975 15.7772 40.4859C18.3652 37.3734 20.8659 34.7418 20.8659 34.7418C22.1077 35.5668 23.5945 35.9877 25.1531 35.8366L25.2743 35.7339C25.2365 36.1202 25.2538 36.4982 25.3227 36.9457C23.4986 38.9837 24.0347 39.3414 20.3884 40.0921C16.6986 40.8525 18.8661 42.2062 20.2813 42.5602C21.997 42.9891 25.9661 43.5968 28.6479 39.8425L28.5411 40.2709C29.2556 40.8434 29.7574 43.9943 29.6734 46.8509C29.5893 49.7073 29.5331 51.6684 30.0961 53.2002C30.6595 54.7321 31.2206 58.1787 36.0143 57.1516C40.0195 56.2932 42.0952 54.0689 42.384 50.3584C42.5888 47.7207 43.0527 48.1107 43.0818 45.7523L43.4538 44.6359C43.8827 41.0602 43.522 39.9066 45.9895 40.4432L46.5895 40.4959C48.4054 40.5784 50.7827 40.2037 52.1779 39.5552C55.182 38.1612 56.9638 35.8332 54.0015 36.4448H54.002Z" fill="#336791"/>
<path d="M24.4952 18.4452C23.8861 18.3604 23.3345 18.4388 23.0554 18.6502C22.8986 18.7691 22.85 18.9068 22.8368 19.0016C22.8018 19.2527 22.9777 19.5304 23.0859 19.6736C23.3918 20.0791 23.8386 20.3577 24.2809 20.4191C24.345 20.4282 24.4089 20.4322 24.4723 20.4322C25.2098 20.4322 25.8804 19.8579 25.9395 19.4341C26.0134 18.9032 25.2427 18.5493 24.4952 18.4454" fill="white"/>
<path d="M44.6734 18.4622C44.6152 18.0461 43.8748 17.9274 43.172 18.0251C42.4702 18.1229 41.7898 18.4397 41.8466 18.8567C41.892 19.1811 42.4777 19.7347 43.1709 19.7347C43.2295 19.7347 43.2886 19.7308 43.3482 19.7224C43.8109 19.6583 44.1505 19.3645 44.3118 19.1951C44.5573 18.937 44.6995 18.6492 44.6734 18.4622Z" fill="white"/>
<path d="M56.2509 36.2863C55.9932 35.507 55.1637 35.2563 53.7855 35.5408C49.6934 36.3854 48.228 35.8004 47.7469 35.4461C50.9275 30.6006 53.5441 24.7433 54.9557 19.2786C55.6244 16.6899 55.9937 14.2858 56.0239 12.3263C56.0573 10.1756 55.691 8.59514 54.9355 7.62969C51.8896 3.73764 47.4191 1.64992 42.0078 1.59264C38.2875 1.55083 35.1444 2.50287 34.535 2.7706C33.2519 2.45151 31.853 2.2556 30.33 2.2306C27.5373 2.18537 25.1232 2.85401 23.1246 4.21696C22.2564 3.89378 20.0128 3.12355 17.2689 2.68151C12.5253 1.91787 8.75572 2.49651 6.06572 4.40219C2.85595 6.67628 1.37413 10.7413 1.66118 16.484C1.75777 18.4161 2.85868 24.3597 4.59595 30.0517C6.88277 37.5436 9.36868 41.7847 11.9841 42.6572C12.2903 42.7592 12.6432 42.8306 13.0325 42.8306C13.9866 42.8306 15.1564 42.4006 16.3735 40.9374C17.8579 39.1566 19.3935 37.4191 20.9782 35.727C22.0064 36.2788 23.136 36.587 24.2912 36.6179C24.2935 36.6481 24.2964 36.6783 24.2991 36.7083C24.1003 36.9455 23.9055 37.186 23.715 37.4299C22.9146 38.4461 22.748 38.6576 20.1714 39.1881C19.4385 39.3395 17.4919 39.7406 17.4632 41.1051C17.4323 42.5961 19.7644 43.2222 20.03 43.2886C20.9559 43.5204 21.848 43.6347 22.6987 43.6347C24.7675 43.6347 26.5882 42.9547 28.0432 41.639C27.9985 46.954 28.22 52.1913 28.8582 53.787C29.381 55.0933 30.6578 58.2858 34.691 58.2856C35.2828 58.2856 35.9341 58.2167 36.6507 58.0631C40.86 57.1608 42.688 55.3004 43.395 51.1988C43.7734 49.0067 44.4228 43.7724 44.7282 40.9647C45.3728 41.1658 46.2025 41.2579 47.0996 41.2576C48.9705 41.2576 51.1294 40.8601 52.4832 40.2317C54.0041 39.5254 56.7487 37.7922 56.2509 36.2863ZM46.2269 17.3136C46.213 18.1424 46.0989 18.8949 45.978 19.6804C45.8478 20.5251 45.7132 21.3986 45.6794 22.4588C45.646 23.4906 45.7748 24.5633 45.8994 25.6008C46.1512 27.6963 46.4096 29.8536 45.4094 31.9822C45.2432 31.6878 45.0952 31.3835 44.9662 31.0711C44.8419 30.7697 44.5719 30.2856 44.198 29.6156C42.7437 27.0074 39.338 20.8997 41.0814 18.4074C41.6007 17.6656 42.9187 16.9029 46.2269 17.3136ZM42.2169 3.27105C47.0655 3.3781 50.901 5.19196 53.6164 8.66196C55.6991 11.3236 53.4057 23.4342 46.7664 33.8822C46.6996 33.7973 46.6325 33.7127 46.565 33.6283L46.4809 33.5233C48.1966 30.6899 47.8612 27.8865 47.5625 25.4011C47.4398 24.3811 47.3239 23.4176 47.3535 22.5126C47.3839 21.5536 47.5107 20.7308 47.6334 19.9354C47.7841 18.9551 47.9375 17.9408 47.8953 16.7451C47.9269 16.6197 47.9396 16.4715 47.923 16.2956C47.815 15.149 46.506 11.7174 43.8378 8.61151C42.3782 6.91264 40.2498 5.01151 37.3437 3.72924C38.5937 3.47014 40.303 3.22855 42.2169 3.27105ZM15.0855 39.8665C13.7446 41.4788 12.8187 41.1697 12.5141 41.0683C10.53 40.4065 8.22777 36.2129 6.198 29.5629C4.44163 23.8088 3.41527 18.0226 3.33391 16.4001C3.07754 11.2688 4.32141 7.69264 7.03118 5.77083C11.4412 2.64355 18.6916 4.51537 21.605 5.46469C21.5632 5.50605 21.5196 5.54469 21.4782 5.58674C16.6973 10.4149 16.8107 18.664 16.8225 19.1683C16.8221 19.3629 16.8385 19.6383 16.8607 20.0172C16.943 21.4047 17.0962 23.987 16.6871 26.9113C16.3071 29.6288 17.1448 32.2886 18.985 34.2088C19.1739 34.4055 19.3724 34.5927 19.5798 34.7697C18.7607 35.647 16.9805 37.587 15.0855 39.8665ZM20.1944 33.0499C18.7112 31.5022 18.0375 29.3495 18.3459 27.1431C18.7778 24.054 18.6185 21.3636 18.5328 19.9181C18.5207 19.7158 18.51 19.5386 18.5039 19.3988C19.2023 18.7795 22.4389 17.0454 24.7471 17.5742C25.8003 17.8154 26.4421 18.5326 26.7089 19.7663C28.0898 26.1533 26.8916 28.8154 25.9289 30.9547C25.7305 31.3954 25.543 31.812 25.383 32.2429L25.2589 32.5761C24.9448 33.4183 24.6525 34.2015 24.4714 34.9451C22.8946 34.9406 21.3607 34.267 20.1944 33.0497V33.0499ZM20.4364 41.6636C19.976 41.5485 19.5619 41.3488 19.3189 41.1831C19.5219 41.0876 19.883 40.9576 20.5094 40.8286C23.5405 40.2047 24.0087 39.7642 25.031 38.4663C25.2653 38.1686 25.531 37.8313 25.8989 37.4204L25.8994 37.4199C26.4473 36.8063 26.698 36.9104 27.1525 37.099C27.521 37.2513 27.8798 37.7131 28.0253 38.2213C28.0941 38.4613 28.1714 38.9167 27.9184 39.2713C25.783 42.2613 22.6712 42.2229 20.4364 41.6636ZM36.2998 56.4254C32.5916 57.2199 31.2787 55.3279 30.4135 53.1649C29.855 51.7686 29.5805 45.4717 29.7753 38.5179C29.7778 38.4254 29.7646 38.3361 29.7391 38.252C29.7164 38.0859 29.6817 37.9217 29.6355 37.7606C29.346 36.7488 28.6403 35.9024 27.7937 35.5515C27.4573 35.4122 26.84 35.1565 26.0982 35.3463C26.2564 34.6945 26.5307 33.9583 26.8282 33.1613L26.953 32.8261C27.0935 32.4481 27.2698 32.0565 27.4562 31.642C28.4637 29.4038 29.8434 26.3381 28.3459 19.4124C27.785 16.8183 25.9119 15.5515 23.0723 15.8458C21.37 16.022 19.8125 16.7088 19.0357 17.1026C18.8687 17.1872 18.716 17.269 18.5732 17.3486C18.79 14.7349 19.6091 9.85037 22.6732 6.75992C24.6025 4.81446 27.1719 3.85355 30.3023 3.90537C36.4705 4.00628 40.4259 7.17173 42.6582 9.80969C44.5819 12.0826 45.6234 14.3724 46.0391 15.6074C42.913 15.2895 40.7869 15.9065 39.7091 17.4474C37.3644 20.7992 40.9919 27.3047 42.7353 30.4313C43.055 31.0042 43.3309 31.4995 43.4178 31.7099C43.9855 33.0858 44.7205 34.0045 45.2571 34.6749C45.4216 34.8804 45.5812 35.0797 45.7025 35.2538C44.7557 35.5267 43.055 36.1574 43.21 39.3099C43.085 40.8917 42.1962 48.2976 41.7446 50.9142C41.1484 54.3711 39.8764 55.6586 36.2998 56.4256V56.4254ZM51.778 38.7126C50.8098 39.162 49.1896 39.499 47.6505 39.5715C45.9505 39.6511 45.085 39.3811 44.8814 39.2149C44.7859 37.2504 45.5171 37.0451 46.2909 36.8279C46.4125 36.7938 46.5312 36.7604 46.6457 36.7204C46.7169 36.7783 46.7948 36.8358 46.8803 36.8922C48.2466 37.794 50.6837 37.8913 54.1244 37.1811L54.1621 37.1735C53.698 37.6074 52.9039 38.1897 51.778 38.7126Z" fill="white"/>
</svg>
