<svg width="43" height="43" viewBox="0 0 43 43" fill="none" xmlns="http://www.w3.org/2000/svg">
<path d="M21.4809 0.651003C9.64717 0.646218 0.0625 10.2261 0.0625 22.0502C0.0625 31.4004 6.0583 39.3486 14.4084 42.2675C15.5329 42.5498 15.3606 41.7507 15.3606 41.2052V37.4967C8.86719 38.2575 8.604 33.9605 8.16855 33.2427C7.28809 31.7402 5.20654 31.3573 5.82861 30.6396C7.30723 29.8787 8.81455 30.831 10.5611 33.4102C11.8244 35.2812 14.2888 34.9654 15.5377 34.6543C15.8104 33.5298 16.3942 32.5249 17.1981 31.7449C10.4702 30.5391 7.66611 26.4334 7.66611 21.5526C7.66611 19.1839 8.44609 17.0067 9.97734 15.2505C9.00117 12.3555 10.0683 9.87678 10.2118 9.50833C12.992 9.2595 15.8822 11.499 16.1071 11.676C17.6862 11.2501 19.4902 11.0252 21.5096 11.0252C23.5385 11.0252 25.3473 11.2597 26.9407 11.6904C27.4814 11.2788 30.1611 9.3552 32.7451 9.58967C32.8839 9.95813 33.9271 12.3794 33.0083 15.2362C34.5587 16.9971 35.3482 19.1935 35.3482 21.5669C35.3482 26.4574 32.525 30.5678 25.7779 31.7545C26.3558 32.3228 26.8147 33.0006 27.1277 33.7483C27.4408 34.4959 27.6017 35.2985 27.6011 36.109V41.4923C27.6394 41.923 27.6011 42.3489 28.3188 42.3489C36.7934 39.4921 42.8944 31.4865 42.8944 22.055C42.8944 10.2261 33.305 0.651003 21.4809 0.651003Z" fill="#66FCF1"/>
</svg>
