<svg width="53" height="60" viewBox="0 0 53 60" fill="none" xmlns="http://www.w3.org/2000/svg">
<path d="M52.9051 0L48.0853 53.9938L26.4202 60L4.81477 54.0021L0 0H52.9051Z" fill="#E44D26"/>
<path d="M26.4524 55.4092L43.9589 50.5558L48.0775 4.41553H26.4524V55.4092Z" fill="#F16529"/>
<path d="M17.0831 17.6618H26.4526V11.0387H9.84488L10.0033 12.8155L11.6313 31.0672H26.4526V24.444H17.6885L17.0831 17.6618Z" fill="#EBEBEB"/>
<path d="M18.5757 34.379H11.927L12.8548 44.7784L26.4219 48.5444L26.4524 48.5361V41.6453L26.4234 41.6529L19.0472 39.6612L18.5757 34.379Z" fill="#EBEBEB"/>
<path d="M26.4298 31.0672H34.5855L33.8165 39.6569L26.4296 41.6507V48.5411L40.0074 44.7782L40.107 43.6592L41.6636 26.2226L41.8251 24.4441H26.4298V31.0672Z" fill="white"/>
<path d="M26.4296 17.6457V17.6618H42.4276L42.5603 16.1732L42.8623 12.8155L43.0205 11.0387H26.4296V17.6459V17.6457Z" fill="white"/>
</svg>
