<svg width="60" height="60" viewBox="0 0 60 60" fill="none" xmlns="http://www.w3.org/2000/svg">
<path d="M0 0H60V60H0V0Z" fill="#F7DF1E"/>
<path d="M15.7761 50.1408L20.3675 47.3621C21.2535 48.9326 22.0592 50.2615 23.9921 50.2615C25.8449 50.2615 27.0132 49.5369 27.0132 46.7178V27.5464H32.6516V46.7975C32.6516 52.6374 29.2283 55.2957 24.2338 55.2957C19.7232 55.2957 17.105 52.9597 15.7759 50.1404" fill="black"/>
<path d="M35.7143 49.5369L40.3053 46.8788C41.5139 48.8525 43.0847 50.3023 45.8635 50.3023C48.2 50.3023 49.6897 49.1342 49.6897 47.5231C49.6897 45.59 48.1592 44.9051 45.5815 43.7778L44.1722 43.1731C40.1042 41.4418 37.4058 39.2668 37.4058 34.6754C37.4058 30.4463 40.6278 27.2241 45.6624 27.2241C49.2469 27.2241 51.8246 28.4729 53.6771 31.7351L49.2868 34.5547C48.32 32.8229 47.2732 32.1383 45.6622 32.1383C44.0107 32.1383 42.9636 33.1854 42.9636 34.5547C42.9636 36.2462 44.0107 36.9312 46.4272 37.9784L47.8367 38.5824C52.6296 40.6367 55.328 42.7308 55.328 47.4427C55.328 52.5179 51.3408 55.2966 45.9842 55.2966C40.7485 55.2966 37.3653 52.7996 35.7141 49.5371" fill="black"/>
</svg>
