<svg width="48" height="48" viewBox="0 0 48 48" fill="none" xmlns="http://www.w3.org/2000/svg">
<path d="M43.6699 0.5625H4.33008C2.25 0.5625 0.5625 2.25 0.5625 4.33008V43.6699C0.5625 45.75 2.25 47.4375 4.33008 47.4375H43.6699C45.75 47.4375 47.4375 45.75 47.4375 43.6699V4.33008C47.4375 2.25 45.75 0.5625 43.6699 0.5625ZM43.6699 43.6875C17.4316 43.6816 4.3125 43.6758 4.3125 43.6699C4.31836 17.4316 4.32422 4.3125 4.33008 4.3125C30.5684 4.31836 43.6875 4.32422 43.6875 4.33008C43.6816 30.5684 43.6758 43.6875 43.6699 43.6875ZM7.51172 18.1348H14.4668V40.5059H7.51172V18.1348ZM10.9922 15.0762C13.2129 15.0762 15.0234 13.2715 15.0234 11.0449C15.0234 10.5155 14.9192 9.99132 14.7166 9.50223C14.514 9.01314 14.217 8.56873 13.8427 8.1944C13.4684 7.82006 13.024 7.52312 12.5349 7.32053C12.0458 7.11794 11.5216 7.01367 10.9922 7.01367C10.4628 7.01367 9.93859 7.11794 9.4495 7.32053C8.9604 7.52312 8.516 7.82006 8.14166 8.1944C7.76733 8.56873 7.47039 9.01314 7.2678 9.50223C7.06521 9.99132 6.96094 10.5155 6.96094 11.0449C6.95508 13.2715 8.75977 15.0762 10.9922 15.0762ZM25.7754 29.4375C25.7754 26.5195 26.332 23.6953 29.9473 23.6953C33.5098 23.6953 33.5625 27.0293 33.5625 29.625V40.5059H40.5117V28.2363C40.5117 22.2129 39.2109 17.5781 32.1738 17.5781C28.793 17.5781 26.5254 19.4355 25.5938 21.1934H25.5V18.1348H18.8262V40.5059H25.7754V29.4375Z" fill="#66FCF1"/>
</svg>
