<?xml version="1.0" encoding="UTF-8"?>
<svg xmlns="http://www.w3.org/2000/svg" xmlns:xlink="http://www.w3.org/1999/xlink" width="50pt" height="50pt" viewBox="0 0 50 50" version="1.1">
<g id="surface1">
<path style=" stroke:none;fill-rule:nonzero;fill:rgb(0%,0%,50.196078%);fill-opacity:1;" d="M 44.113281 25.003906 C 44.113281 14.457031 35.550781 5.894531 25 5.894531 C 14.449219 5.894531 5.886719 14.457031 5.886719 25.003906 C 5.886719 35.554688 14.449219 44.117188 25 44.117188 C 35.550781 44.117188 44.113281 35.554688 44.113281 25.003906 "/>
<path style=" stroke:none;fill-rule:nonzero;fill:rgb(100%,100%,100%);fill-opacity:1;" d="M 38.515625 17.085938 C 38.515625 13.996094 36.007812 11.488281 32.921875 11.488281 C 29.828125 11.488281 27.320312 13.996094 27.320312 17.085938 C 27.320312 20.171875 29.828125 22.679688 32.921875 22.679688 C 36.007812 22.679688 38.515625 20.171875 38.515625 17.085938 "/>
<path style=" stroke:none;fill-rule:nonzero;fill:rgb(0%,0%,50.196078%);fill-opacity:1;" d="M 49.710938 5.886719 C 49.710938 2.796875 47.203125 0.289062 44.113281 0.289062 C 41.023438 0.289062 38.515625 2.796875 38.515625 5.886719 C 38.515625 8.976562 41.023438 11.484375 44.113281 11.484375 C 47.203125 11.484375 49.710938 8.980469 49.710938 5.886719 "/>
<path style=" stroke:none;fill-rule:nonzero;fill:rgb(100%,100%,100%);fill-opacity:1;" d="M 13.628906 33.148438 L 19.820312 33.148438 L 19.820312 34.554688 L 12.027344 34.554688 L 12.027344 22.015625 L 13.628906 22.015625 Z M 13.628906 33.148438 "/>
<path style=" stroke:none;fill-rule:nonzero;fill:rgb(100%,100%,100%);fill-opacity:1;" d="M 27.21875 34.554688 L 27.21875 33.300781 C 26.371094 34.488281 25.53125 34.953125 24.210938 34.953125 C 22.457031 34.953125 21.335938 33.992188 21.335938 32.492188 L 21.335938 25.542969 L 22.761719 25.542969 L 22.761719 31.929688 C 22.761719 33.011719 23.484375 33.703125 24.617188 33.703125 C 26.113281 33.703125 27.082031 32.496094 27.082031 30.65625 L 27.082031 25.542969 L 28.507812 25.542969 L 28.507812 34.554688 Z M 27.21875 34.554688 "/>
<path style=" stroke:none;fill-rule:nonzero;fill:rgb(100%,100%,100%);fill-opacity:1;" d="M 38.988281 34.800781 C 38.519531 34.917969 38.300781 34.953125 38.003906 34.953125 C 37.074219 34.953125 36.625 34.542969 36.527344 33.628906 C 35.511719 34.554688 34.601562 34.953125 33.460938 34.953125 C 31.644531 34.953125 30.507812 33.921875 30.507812 32.289062 C 30.507812 31.113281 31.039062 30.308594 32.089844 29.878906 C 32.640625 29.65625 32.953125 29.585938 34.976562 29.332031 C 36.113281 29.191406 36.472656 28.933594 36.472656 28.332031 L 36.472656 27.953125 C 36.472656 27.089844 35.75 26.609375 34.460938 26.609375 C 33.121094 26.609375 32.464844 27.105469 32.34375 28.210938 L 30.898438 28.210938 C 30.933594 27.320312 31.105469 26.800781 31.515625 26.335938 C 32.117188 25.667969 33.199219 25.285156 34.507812 25.285156 C 36.726562 25.285156 37.898438 26.148438 37.898438 27.746094 L 37.898438 33.046875 C 37.898438 33.496094 38.175781 33.753906 38.675781 33.753906 C 38.757812 33.753906 38.828125 33.753906 38.988281 33.714844 Z M 36.472656 30.101562 C 35.992188 30.320312 35.679688 30.390625 34.164062 30.59375 C 32.632812 30.816406 31.996094 31.304688 31.996094 32.25 C 31.996094 33.160156 32.652344 33.695312 33.769531 33.695312 C 34.613281 33.695312 35.316406 33.421875 35.902344 32.886719 C 36.332031 32.492188 36.472656 32.203125 36.472656 31.714844 Z M 36.472656 30.101562 "/>
<path style="fill:none;stroke-width:10.8612;stroke-linecap:butt;stroke-linejoin:miter;stroke:rgb(50.196078%,50.196078%,50.196078%);stroke-opacity:1;stroke-dasharray:40.8475,40.8475;stroke-miterlimit:10;" d="M 890.620709 261.015938 C 924.13551 326.787811 941.59576 399.588175 941.59576 473.4983 C 941.59576 731.85081 731.85081 941.59576 473.4983 941.59576 C 215.071806 941.59576 5.40084 731.85081 5.40084 473.4983 C 5.40084 215.071806 215.071806 5.40084 473.4983 5.40084 C 556.582455 5.40084 638.112944 27.448105 709.655577 69.249126 " transform="matrix(0.0527985,0,0,0.0527985,0,0)"/>
</g>
</svg>
